<?xml version="1.0" standalone="no"?>
<!DOCTYPE svg PUBLIC "-//W3C//DTD SVG 20010904//EN"
 "http://www.w3.org/TR/2001/REC-SVG-20010904/DTD/svg10.dtd">
<svg version="1.0" xmlns="http://www.w3.org/2000/svg"
 width="700.000000pt" height="700.000000pt" viewBox="0 0 700.000000 700.000000"
 preserveAspectRatio="xMidYMid meet">
<metadata>
Created by potrace 1.11, written by Peter Selinger 2001-2013
</metadata>
<g transform="translate(0.000000,700.000000) scale(0.100000,-0.100000)"
fill="#000000" stroke="none">
<path d="M3076 6511 c-2 -3 -3 -454 -2 -1001 1 -547 -1 -999 -5 -1005 -4 -5
-19 -32 -34 -60 -16 -27 -178 -315 -360 -640 -183 -324 -342 -606 -352 -625
-11 -19 -88 -154 -170 -300 -83 -146 -161 -283 -173 -305 -12 -22 -33 -58 -46
-80 l-23 -40 -138 -28 c-76 -15 -147 -29 -158 -32 -11 -2 -67 -13 -125 -24
-58 -12 -106 -21 -107 -21 -2 0 -3 -4 -3 -9 0 -4 -22 -46 -48 -92 -27 -46 -60
-104 -74 -129 -14 -25 -74 -130 -133 -235 -156 -274 -244 -432 -304 -540 -19
-33 -60 -106 -92 -161 -90 -157 -117 -204 -152 -268 -17 -32 -37 -66 -42 -75
-6 -9 -41 -72 -79 -141 -38 -69 -77 -136 -86 -150 -10 -14 -20 -34 -24 -46
l-6 -21 3049 0 3049 0 -13 36 c-7 20 -29 74 -48 121 -52 127 -170 419 -301
745 -132 327 -153 375 -163 376 -5 0 -15 2 -23 3 -8 2 -42 6 -75 10 -78 10
-123 15 -160 21 -16 2 -57 7 -90 11 -33 3 -96 11 -139 18 l-80 11 -29 50 c-17
28 -70 120 -120 205 -113 195 -102 176 -289 497 -87 149 -158 275 -158 279 0
13 306 478 316 481 5 1 78 -100 162 -225 363 -537 344 -512 372 -508 34 6 122
15 202 21 37 3 76 8 86 10 11 2 27 -2 34 -8 12 -10 192 -280 223 -334 6 -10
63 -98 127 -195 l117 -178 133 86 c73 48 137 90 142 95 5 4 -32 71 -84 151
-51 79 -130 199 -174 268 -326 503 -309 480 -349 475 -18 -2 -59 -6 -92 -9
-78 -7 -163 -17 -196 -22 -28 -4 -1 -40 -324 436 -198 293 -374 551 -381 559
-1 2 -75 -106 -163 -240 -88 -134 -202 -308 -254 -387 -70 -107 -96 -140 -104
-130 -9 12 -50 82 -78 133 -6 11 -33 57 -59 103 l-49 83 -86 -7 c-47 -3 -88
-8 -91 -9 -3 -2 -43 -6 -90 -10 l-85 -6 -134 233 c-73 128 -142 245 -152 260
-10 15 -19 29 -19 31 0 2 -64 114 -141 248 l-141 244 -1 318 c0 174 3 320 6
323 3 3 321 6 707 6 530 0 699 3 691 11 -5 7 -28 48 -51 92 -37 71 -179 334
-276 512 l-34 62 24 43 c70 128 326 606 331 619 6 15 -68 17 -864 17 -479 0
-873 -3 -875 -7z m1174 -338 c0 -2 -18 -36 -39 -76 -22 -39 -62 -114 -89 -166
l-49 -94 37 -66 c46 -82 140 -259 140 -263 0 -2 -186 -3 -412 -3 l-413 0 -3
325 c-1 179 0 330 2 336 3 7 130 10 415 10 226 0 411 -1 411 -3z m-891 -2236
c50 -88 91 -163 91 -168 0 -5 5 -9 10 -9 6 0 10 -5 10 -11 0 -6 27 -56 60
-111 33 -54 60 -100 60 -102 0 -5 219 -378 231 -392 6 -7 14 -12 18 -10 3 2
40 7 81 11 41 4 104 10 140 14 36 3 76 6 88 6 26 0 41 -22 184 -270 98 -170
241 -416 282 -485 18 -30 125 -212 236 -405 112 -192 222 -381 245 -420 l42
-70 84 -11 c46 -6 108 -14 137 -18 28 -3 67 -8 85 -11 17 -2 52 -6 77 -9 108
-12 148 -19 157 -25 7 -4 213 -503 248 -601 5 -13 -277 -15 -2499 -15 -2222 0
-2503 2 -2498 15 3 8 8 20 12 25 4 6 19 30 32 55 21 37 178 316 609 1075 l28
51 173 34 c192 38 183 36 218 43 14 3 49 10 79 16 30 6 55 12 56 14 2 2 570
1009 605 1072 12 22 50 90 85 150 34 61 74 133 90 160 15 28 86 154 158 280
72 127 140 247 150 268 16 31 22 36 32 25 7 -7 54 -84 104 -171z"/>
<path d="M1156 5033 c-123 -28 -258 -132 -302 -232 -17 -38 -21 -41 -58 -42
-23 0 -75 -1 -116 -2 l-75 -2 -1 -167 c0 -145 2 -168 15 -169 9 -1 130 -2 268
-3 l253 -1 1 55 c1 30 0 70 -1 88 -8 147 166 201 227 71 l20 -42 129 1 c71 0
146 1 167 1 l39 1 -7 48 c-18 140 -91 258 -209 334 -102 66 -232 89 -350 61z"/>
<path d="M5372 4646 l3 -171 293 0 292 0 0 171 0 171 -295 0 -295 0 2 -171z"/>
<path d="M6175 4646 l0 -171 185 0 185 0 1 171 1 171 -186 0 -186 0 0 -171z"/>
<path d="M1886 4596 c0 -88 2 -166 2 -171 1 -7 76 -10 210 -9 114 1 209 2 212
3 4 1 5 265 1 322 -1 14 -25 16 -214 17 l-213 0 2 -162z"/>
</g>
</svg>
